<?xml version="1.0" encoding="utf-8"?>
<!-- Generator: Adobe Illustrator 18.1.1, SVG Export Plug-In . SVG Version: 6.00 Build 0)  -->
<!DOCTYPE svg PUBLIC "-//W3C//DTD SVG 1.1//EN" "http://www.w3.org/Graphics/SVG/1.1/DTD/svg11.dtd">
<svg version="1.1" id="Layer_1" xmlns="http://www.w3.org/2000/svg" xmlns:xlink="http://www.w3.org/1999/xlink" x="0px" y="0px"
	 viewBox="843.9 66.7 72.3 60" enable-background="new 843.9 66.7 72.3 60" xml:space="preserve">
<g id="Layer_1_3_">
	<path fill="#212121" d="M905.8,66.7h-51.6c-5.8,0-10.4,4.8-10.4,10.6V106c0,4.3,2.6,8,6.5,9.6c0,0,24.6,11.1,29.6,11.1
		s29.6-11.1,29.6-11.1c3.9-1.7,6.5-5.3,6.5-9.6V77.3C916.1,71.5,911.6,66.7,905.8,66.7z M885.1,110.3v4.1l-5.1,2.2l-5.1-2.2v-4.1
		v-2.2h10.4v2.2H885.1z M905.8,106l-10.4,4.1v-1.9v-21h-10.4v10.4h-10.4V87.2h-10.1v21v1.9l-10.4-4.1V77.1h51.6V106z"/>
</g>
</svg>
